<svg width="22" height="22" viewBox="0 0 22 22" fill="none" xmlns="http://www.w3.org/2000/svg">
<path fill-rule="evenodd" clip-rule="evenodd" d="M13.0044 0.114773C11.9084 -0.191165 10.882 0.139562 10.1526 0.80979C9.43445 1.46963 9 2.45576 9 3.51087V10.2054C9 11.4728 10.0275 12.5003 11.2949 12.5003H17.9894C19.0445 12.5003 20.0306 12.0658 20.6905 11.3477C21.3607 10.6183 21.6914 9.59186 21.3855 8.49587C20.2534 4.44027 17.06 1.24687 13.0044 0.114773ZM10.5 3.51087C10.5 2.85956 10.7701 2.27942 11.1675 1.91432C11.5535 1.55959 12.0535 1.40668 12.6011 1.55954C16.1513 2.55055 18.9497 5.349 19.9407 8.89917C20.0936 9.44678 19.9407 9.94674 19.5859 10.3328C19.2208 10.7301 18.6407 11.0003 17.9894 11.0003H11.2949C10.8559 11.0003 10.5 10.6444 10.5 10.2054V3.51087Z" fill="#6A0BFF"/>
<path d="M7.42232 3.46579C7.8175 3.34167 8.03724 2.9207 7.91312 2.52552C7.789 2.13034 7.36803 1.9106 6.97285 2.03472C2.93231 3.30378 0 7.07818 0 11.5394C0 17.0406 4.45962 21.5003 9.96084 21.5003C14.4221 21.5003 18.1965 18.5679 19.4655 14.5274C19.5897 14.1322 19.3699 13.7113 18.9747 13.5871C18.5796 13.463 18.1586 13.6828 18.0345 14.0779C16.9561 17.5113 13.7482 20.0003 9.96084 20.0003C5.28805 20.0003 1.5 16.2122 1.5 11.5394C1.5 7.75209 3.98899 4.54414 7.42232 3.46579Z" fill="#6A0BFF"/>
</svg>
