<svg width="16" height="21" viewBox="0 0 16 21" fill="none" xmlns="http://www.w3.org/2000/svg">
<path fill-rule="evenodd" clip-rule="evenodd" d="M7.75 0C5.12665 0 3 2.12665 3 4.75C3 7.37335 5.12665 9.5 7.75 9.5C10.3734 9.5 12.5 7.37335 12.5 4.75C12.5 2.12665 10.3734 0 7.75 0ZM4.5 4.75C4.5 2.95507 5.95507 1.5 7.75 1.5C9.54493 1.5 11 2.95507 11 4.75C11 6.54493 9.54493 8 7.75 8C5.95507 8 4.5 6.54493 4.5 4.75Z" fill="#6A0BFF"/>
<path fill-rule="evenodd" clip-rule="evenodd" d="M7.75 11C5.71067 11 3.82752 11.4708 2.42815 12.2704C1.05 13.0579 0 14.2601 0 15.75C0 17.2399 1.05 18.4421 2.42815 19.2296C3.82752 20.0292 5.71067 20.5 7.75 20.5C9.78933 20.5 11.6725 20.0292 13.0719 19.2296C14.45 18.4421 15.5 17.2399 15.5 15.75C15.5 14.2601 14.45 13.0579 13.0719 12.2704C11.6725 11.4708 9.78933 11 7.75 11ZM1.5 15.75C1.5 15.0307 2.01701 14.233 3.17236 13.5728C4.30649 12.9247 5.92334 12.5 7.75 12.5C9.57666 12.5 11.1935 12.9247 12.3276 13.5728C13.483 14.233 14 15.0307 14 15.75C14 16.4693 13.483 17.267 12.3276 17.9272C11.1935 18.5753 9.57666 19 7.75 19C5.92334 19 4.30649 18.5753 3.17236 17.9272C2.01701 17.267 1.5 16.4693 1.5 15.75Z" fill="#6A0BFF"/>
<path fill-rule="evenodd" clip-rule="evenodd" d="M7.75 0C5.12665 0 3 2.12665 3 4.75C3 7.37335 5.12665 9.5 7.75 9.5C10.3734 9.5 12.5 7.37335 12.5 4.75C12.5 2.12665 10.3734 0 7.75 0ZM4.5 4.75C4.5 2.95507 5.95507 1.5 7.75 1.5C9.54493 1.5 11 2.95507 11 4.75C11 6.54493 9.54493 8 7.75 8C5.95507 8 4.5 6.54493 4.5 4.75Z" stroke="#6A0BFF"/>
<path fill-rule="evenodd" clip-rule="evenodd" d="M7.75 11C5.71067 11 3.82752 11.4708 2.42815 12.2704C1.05 13.0579 0 14.2601 0 15.75C0 17.2399 1.05 18.4421 2.42815 19.2296C3.82752 20.0292 5.71067 20.5 7.75 20.5C9.78933 20.5 11.6725 20.0292 13.0719 19.2296C14.45 18.4421 15.5 17.2399 15.5 15.75C15.5 14.2601 14.45 13.0579 13.0719 12.2704C11.6725 11.4708 9.78933 11 7.75 11ZM1.5 15.75C1.5 15.0307 2.01701 14.233 3.17236 13.5728C4.30649 12.9247 5.92334 12.5 7.75 12.5C9.57666 12.5 11.1935 12.9247 12.3276 13.5728C13.483 14.233 14 15.0307 14 15.75C14 16.4693 13.483 17.267 12.3276 17.9272C11.1935 18.5753 9.57666 19 7.75 19C5.92334 19 4.30649 18.5753 3.17236 17.9272C2.01701 17.267 1.5 16.4693 1.5 15.75Z" stroke="#6A0BFF"/>
</svg>
